# xmcd
#
# Track frame offsets: 
#        150
#        15824
#        29478
#        51307
#        63677
#        77111
#        97520
#        108777
#        116218
#        132263
#        154633
#        181976
#        195331
#        211184
#        240104
#        260787
#
# Disc length: 4798 seconds
#
# Revision: 0
# Processed by: cddbd v1.5.1PL2 Copyright (c) Steve Scherf et al.
# Submitted via: ExactAudioCopy v0.95b2
#
DISCID=c612bc10
DTITLE=Savoy Brown - Shake Down and A Step Further
DYEAR=1967
DGENRE=Blues
TTITLE0=Ain`t Superstitious
TTITLE1=Let Me Love You Baby
TTITLE2=Black Night
TTITLE3=High Rise
TTITLE4=Rock Me Baby
TTITLE5=I Smell Trouble
TTITLE6=Pretty Woman
TTITLE7=Little Girl
TTITLE8=The Doormouse Rides The Rails
TTITLE9=It`s All My Fault
TTITLE10=Shake`em On Down
TTITLE11=Made Up My Mind
TTITLE12=Waiting The Bamboo Grove
TTITLE13=Life`s One Act Play
TTITLE14=a.I`m Tired b.Where Am I
TTITLE15=Savoy Brown Boogie (Live)
EXTD=
EXTT0=
EXTT1=
EXTT2=
EXTT3=
EXTT4=
EXTT5=
EXTT6=
EXTT7=
EXTT8=
EXTT9=
EXTT10=
EXTT11=
EXTT12=
EXTT13=
EXTT14=
EXTT15=
PLAYORDER=
